<svg id="visual" viewBox="0 0 1920 100" width="1920" height="600" xmlns="http://www.w3.org/2000/svg" xmlns:xlink="http://www.w3.org/1999/xlink" version="1.1"><rect x="0" y="0" width="1920" height="600" fill="#212529"></rect><path d="M0 176L274 245L549 233L823 174L1097 173L1371 243L1646 209L1920 247L1920 0L1646 0L1371 0L1097 0L823 0L549 0L274 0L0 0Z" fill="#00cc8e"></path><path d="M0 135L274 165L549 180L823 133L1097 203L1371 192L1646 120L1920 144L1920 0L1646 0L1371 0L1097 0L823 0L549 0L274 0L0 0Z" fill="#00b98a"></path><path d="M0 99L274 112L549 142L823 94L1097 144L1371 161L1646 139L1920 149L1920 0L1646 0L1371 0L1097 0L823 0L549 0L274 0L0 0Z" fill="#00a784"></path><path d="M0 56L274 85L549 68L823 104L1097 112L1371 74L1646 86L1920 97L1920 0L1646 0L1371 0L1097 0L823 0L549 0L274 0L0 0Z" fill="#00957c"></path><path d="M0 36L274 56L549 38L823 58L1097 35L1371 46L1646 44L1920 38L1920 0L1646 0L1371 0L1097 0L823 0L549 0L274 0L0 0Z" fill="#038373"></path></svg>