<svg id="visual" viewBox="0 0 1920 100" width="1920" height="600" xmlns="http://www.w3.org/2000/svg"
    xmlns:xlink="http://www.w3.org/1999/xlink" version="1.1">
    <rect x="0" y="0" width="1920" height="600" fill="#212529"></rect>
    <path
        d="M0 241L64 233.2C128 225.3 256 209.7 384 205.7C512 201.7 640 209.3 768 213.8C896 218.3 1024 219.7 1152 214.5C1280 209.3 1408 197.7 1536 198C1664 198.3 1792 210.7 1856 216.8L1920 223L1920 0L1856 0C1792 0 1664 0 1536 0C1408 0 1280 0 1152 0C1024 0 896 0 768 0C640 0 512 0 384 0C256 0 128 0 64 0L0 0Z"
        fill="#dc3545"></path>
    <path
        d="M0 187L64 177C128 167 256 147 384 148C512 149 640 171 768 177C896 183 1024 173 1152 171.8C1280 170.7 1408 178.3 1536 176.8C1664 175.3 1792 164.7 1856 159.3L1920 154L1920 0L1856 0C1792 0 1664 0 1536 0C1408 0 1280 0 1152 0C1024 0 896 0 768 0C640 0 512 0 384 0C256 0 128 0 64 0L0 0Z"
        fill="#e8463c"></path>
    <path
        d="M0 137L64 138.7C128 140.3 256 143.7 384 137C512 130.3 640 113.7 768 111.3C896 109 1024 121 1152 131.5C1280 142 1408 151 1536 150.2C1664 149.3 1792 138.7 1856 133.3L1920 128L1920 0L1856 0C1792 0 1664 0 1536 0C1408 0 1280 0 1152 0C1024 0 896 0 768 0C640 0 512 0 384 0C256 0 128 0 64 0L0 0Z"
        fill="#f15832"></path>
    <path
        d="M0 83L64 78.5C128 74 256 65 384 66.7C512 68.3 640 80.7 768 90.7C896 100.7 1024 108.3 1152 104.3C1280 100.3 1408 84.7 1536 76.8C1664 69 1792 69 1856 69L1920 69L1920 0L1856 0C1792 0 1664 0 1536 0C1408 0 1280 0 1152 0C1024 0 896 0 768 0C640 0 512 0 384 0C256 0 128 0 64 0L0 0Z"
        fill="#f86b26"></path>
    <path
        d="M0 36L64 39C128 42 256 48 384 46.2C512 44.3 640 34.7 768 29.8C896 25 1024 25 1152 31.3C1280 37.7 1408 50.3 1536 56C1664 61.7 1792 60.3 1856 59.7L1920 59L1920 0L1856 0C1792 0 1664 0 1536 0C1408 0 1280 0 1152 0C1024 0 896 0 768 0C640 0 512 0 384 0C256 0 128 0 64 0L0 0Z"
        fill="#fd7e14"></path>
</svg>